<?xml version="1.0" standalone="no"?>
<!DOCTYPE svg PUBLIC "-//W3C//DTD SVG 1.1//EN" "http://www.w3.org/Graphics/SVG/1.1/DTD/svg11.dtd" >
<svg xmlns="http://www.w3.org/2000/svg">
<metadata>
Created by FontForge 20120731 at Wed Nov  2 12:49:00 2016
 By admin
</metadata>
<defs>
<font id="iconfont" horiz-adv-x="1024" >
  <font-face 
    font-family="iconfont"
    font-weight="500"
    font-stretch="normal"
    units-per-em="1024"
    panose-1="2 0 6 3 0 0 0 0 0 0"
    ascent="896"
    descent="-128"
    x-height="792"
    bbox="0 -212 1134 896"
    underline-thickness="50"
    underline-position="-100"
    unicode-range="U+0078-E754"
  />
<missing-glyph horiz-adv-x="374" 
d="M34 0v682h272v-682h-272zM68 34h204v614h-204v-614z" />
    <glyph glyph-name=".notdef" horiz-adv-x="374" 
d="M34 0v682h272v-682h-272zM68 34h204v614h-204v-614z" />
    <glyph glyph-name=".null" horiz-adv-x="0" 
 />
    <glyph glyph-name="nonmarkingreturn" horiz-adv-x="341" 
 />
    <glyph glyph-name="x" unicode="x" horiz-adv-x="1001" 
d="M281 543q-27 -1 -53 -1h-83q-18 0 -36.5 -6t-32.5 -18.5t-23 -32t-9 -45.5v-76h912v41q0 16 -0.5 30t-0.5 18q0 13 -5 29t-17 29.5t-31.5 22.5t-49.5 9h-133v-97h-438v97zM955 310v-52q0 -23 0.5 -52t0.5 -58t-10.5 -47.5t-26 -30t-33 -16t-31.5 -4.5q-14 -1 -29.5 -0.5
t-29.5 0.5h-32l-45 128h-439l-44 -128h-29h-34q-20 0 -45 1q-25 0 -41 9.5t-25.5 23t-13.5 29.5t-4 30v167h911zM163 247q-12 0 -21 -8.5t-9 -21.5t9 -21.5t21 -8.5q13 0 22 8.5t9 21.5t-9 21.5t-22 8.5zM316 123q-8 -26 -14 -48q-5 -19 -10.5 -37t-7.5 -25t-3 -15t1 -14.5
t9.5 -10.5t21.5 -4h37h67h81h80h64h36q23 0 34 12t2 38q-5 13 -9.5 30.5t-9.5 34.5q-5 19 -11 39h-368zM336 498v228q0 11 2.5 23t10 21.5t20.5 15.5t34 6h188q31 0 51.5 -14.5t20.5 -52.5v-227h-327z" />
    <glyph glyph-name="uniE600" unicode="&#xe600;" 
d="M1011 421l-476 408q-10 8 -23 8t-23 -8l-476 -408q-18 -16 -9.5 -39.5t32.5 -23.5h142v-392q0 -15 10.5 -25.5t25.5 -10.5h189q15 0 25 10.5t10 25.5v176h166v-176q0 -15 10.5 -25.5t24.5 -10.5h190q14 0 24.5 10.5t10.5 25.5v393h118q19 -2 33 14q10 11 9 24.5t-13 23.5
zM793 1h-118v177q0 15 -10.5 25t-25.5 10h-236q-15 0 -25.5 -10t-10.5 -25v-177h-118v393q0 14 -10.5 24.5t-24.5 10.5h-82l380 326l377 -323h-73q-8 0 -16 -5.5t-8 -17.5v-50h1v-358z" />
    <glyph glyph-name="uniE601" unicode="&#xe601;" 
d="M907 659q-34 46 -85 97q-52 51 -97 84q-56 42 -88 42h-483q-32 0 -55 -23t-23 -55v-841q0 -32 23 -55t55 -23h716q32 0 55 23t23 55v607q0 33 -41 89zM778 712q42 -42 71 -80h-150v150q38 -29 79 -70zM886 -37q0 -6 -5 -11t-11 -5h-716q-6 0 -11 5t-5 11v841q0 6 5 10.5
t11 4.5h483v-218q0 -13 9 -22t22 -9h218v-607zM730 72h-436q-13 0 -22 9t-9 22t9 22t22 9h436q13 0 22 -9t9 -22t-9 -22t-22 -9zM730 197h-436q-13 0 -22 9t-9 22t9 22t22 9h436q13 0 22 -9t9 -22t-9 -22t-22 -9zM730 321h-436q-13 0 -22 9t-9 22t9 22t22 9h436q13 0 22 -9
t9 -22t-9 -22t-22 -9z" />
    <glyph glyph-name="uniE602" unicode="&#xe602;" 
d="M512 864q-98 0 -186.5 -38t-153 -102.5t-102.5 -153t-38 -186.5t38 -186.5t102.5 -153t153 -102.5t186.5 -38t186.5 38t153 102.5t102.5 153t38 186.5t-38 186.5t-102.5 153t-153 102.5t-186.5 38zM512 -32q-172 0 -294 122t-122 294t122 294t294 122t294 -122t122 -294
t-122 -294t-294 -122zM704 672l-64 16l-121 -241h-14l-121 241l-64 -16l114 -225h-114v-64h160v-128h-160v-64h160v-126h64v126h160v64h-160v128h160v64h-114z" />
    <glyph glyph-name="uniE603" unicode="&#xe603;" 
d="M932 469q11 1 19 10t8 21v170q0 15 -11.5 26.5t-27.5 11.5h-816q-16 0 -27.5 -11.5t-11.5 -26.5v-170q0 -12 8 -21t19 -10q32 -4 53.5 -28t21.5 -56t-21.5 -56.5t-53.5 -28.5q-11 -1 -19 -9.5t-8 -20.5v-172q0 -15 11.5 -26.5t27.5 -11.5h816q16 0 27.5 11.5t11.5 26.5
v172q0 12 -8 20.5t-19 9.5q-32 4 -53.5 28.5t-21.5 56.5t21.5 56t53.5 28zM897 245v-124h-770v124q45 15 73 53.5t28 86.5t-28 86t-73 53v123h770v-123q-45 -15 -73 -53t-28 -86t28 -86.5t73 -53.5zM674 576l-97 -161h67q10 0 10 -10v-39q0 -10 -10 -10h-97v-27h97
q10 0 10 -11v-39q0 -10 -10 -10h-97v-91q0 -5 -3 -8t-8 -3h-48q-5 0 -8 3t-3 8v91h-100q-4 0 -7 3t-3 7v39q0 11 10 11h100v27h-100q-4 0 -7 3t-3 7v39q0 4 3 7t7 3h68l-95 161q-4 5 -1 10t9 5h55q7 0 9 -5q27 -49 71 -117q15 -25 21 -34q23 41 91 151q3 5 9 5h52q6 0 9 -5
t-1 -10z" />
    <glyph glyph-name="uniE604" unicode="&#xe604;" 
d="M903 743q-62 0 -123.5 14t-102 30.5t-79 39t-50 31t-18.5 14.5q-10 9 -23 8t-22 -12q-27 -34 -76.5 -60t-104.5 -38.5t-103.5 -18.5t-89.5 -6q-15 -2 -22 -9q-9 -9 -9 -22v-359q0 -46 25.5 -108t70.5 -123.5t98.5 -115t116.5 -87t119 -33.5q58 0 121.5 34t115.5 87.5
t95.5 115t67.5 120t24 99.5v368q0 13 -9 22t-22 9zM872 344q0 -32 -22 -82.5t-60 -103.5t-83 -100t-98 -77.5t-99 -30.5q-55 0 -122 46t-120 110t-89 133.5t-36 115.5v328q37 2 77 7.5t96 17.5t108.5 37.5t88.5 60.5q25 -17 55 -34t76 -38t106 -35.5t122 -17.5v-337z
M366 575q-5 12 -17.5 16.5t-24 -1.5t-16 -18t1.5 -24l169 -351q8 -18 28 -18q19 0 28 18l175 351q6 12 1.5 24t-16 18t-23.5 1.5t-18 -15.5l-147 -294z" />
    <glyph glyph-name="uniE605" unicode="&#xe605;" 
d="M957 536l-161 261q-9 15 -27 15h-514q-18 0 -27 -15l-159 -256l-2 -4v-1q-3 -6 -3 -13l1 -4q0 -6 3 -10l418 -539l3 -3l4 -4l8 -5q5 -2 11 -2t11 2l8 5l2 2l422 541l1 3q3 5 3 10l1 4q0 7 -3 13zM667 555h-310l63 194h184zM354 749l-64 -194h-136l118 194h82zM159 492
h131l121 -320zM734 492h131l-253 -320zM734 555l-64 194h82l118 -194h-136zM667 492l-155 -412l-155 412h310z" />
    <glyph glyph-name="uniE606" unicode="&#xe606;" 
d="M878 862h-731q-46 0 -78.5 -28t-32.5 -68v-833q0 -11 8.5 -18.5t21.5 -7.5h5h5q11 0 19 5l125 85l126 -85q18 -12 37 0l130 88l126 -85q19 -13 38 0l125 84l128 -86q9 -6 20 -5q4 -1 9 -1q12 0 21 7.5t9 18.5v833q0 40 -32.5 68t-78.5 28zM928 -19l-107 72q-19 13 -38 0
l-125 -84l-126 85q-19 12 -38 0l-130 -88l-125 84q-19 13 -38 0l-105 -70v786q0 18 15 31t36 13h731q20 0 35 -13t15 -31v-785v0zM771 566h-532q-7 0 -12.5 -5t-5.5 -11v-26q0 -6 5.5 -11t12.5 -5h532q8 0 13.5 5t5.5 11v26q0 6 -5.5 11t-13.5 5zM239 661h383q8 0 13.5 4.5
t5.5 11.5v26q0 6 -5.5 10.5t-13.5 4.5h-383q-7 0 -12.5 -4.5t-5.5 -10.5v-26q0 -7 5.5 -11.5t12.5 -4.5zM771 413h-532q-7 0 -12.5 -4.5t-5.5 -11.5v-26q0 -6 5.5 -10.5t12.5 -4.5h532q8 0 13.5 4.5t5.5 10.5v26q0 7 -5.5 11.5t-13.5 4.5zM771 260h-532q-7 0 -12.5 -4.5
t-5.5 -11.5v-25q0 -7 5.5 -11.5t12.5 -4.5h532q8 0 13.5 4.5t5.5 11.5v25q0 7 -5.5 11.5t-13.5 4.5z" />
    <glyph glyph-name="uniE607" unicode="&#xe607;" 
d="M258 623h114v-84h-114v84zM428 623h114v-84h-114v84v0zM258 482h114v-84h-114v84zM428 482h114v-84h-114v84v0zM710 482h56v-84h-56v84zM710 341h56v-84h-56v84zM258 341h114v-84h-114v84zM428 341h114v-84h-114v84v0zM880 86v509h-226v170h-510v-677h-28v-56h792v56h-28
v-2zM200 86v623h396v-621h-396v-2zM654 86v453h170v-451h-170v-2zM654 86z" />
    <glyph glyph-name="uniE608" unicode="&#xe608;" horiz-adv-x="1025" 
d="M628 311h56q13 0 22.5 9.5t9.5 22.5t-9.5 22.5t-22.5 9.5h-56q-14 0 -23 -9.5t-9 -22.5t9 -22.5t23 -9.5zM233 183h226q13 0 22.5 9.5t9.5 22.5t-9.5 22.5t-22.5 9.5h-226q-13 0 -22.5 -9.5t-9.5 -22.5t9.5 -22.5t22.5 -9.5zM233 311h282q13 0 22.5 9.5t9.5 22.5
t-9.5 22.5t-22.5 9.5h-282q-13 0 -22.5 -9.5t-9.5 -22.5t9.5 -22.5t22.5 -9.5zM851 754h-677q-48 0 -82 -34t-34 -82v-508q0 -48 34 -82t82 -34h677q48 0 82 34t34 82v508q0 48 -34 82t-82 34zM122 585v53q0 21 15.5 36.5t36.5 15.5h677q21 0 36.5 -15.5t15.5 -36.5v-53
h-781zM903 130q0 -21 -15.5 -36.5t-36.5 -15.5h-677q-21 0 -36.5 15.5t-15.5 36.5v391h781v-391z" />
    <glyph glyph-name="uniE609" unicode="&#xe609;" 
d="M482 -19h57v123h-57v-123zM757 447q-1 35 -6 68t-21 75t-41 72.5t-70 52t-105 21.5q-47 0 -86 -11.5t-64.5 -29t-44.5 -43t-29 -51t-16 -55t-7 -52.5t0 -47h-145v-607h780v607h-145zM514 678q45 0 78.5 -16.5t51 -40.5t28 -57t13 -60.5t1.5 -56.5h-345q-2 29 0 56.5
t12.5 60.5t28.5 57t52 40.5t80 16.5zM844 -102h-664v491h664v-491zM512 104q44 0 75 30.5t31 73t-31 73t-75 30.5t-75 -30.5t-31 -73t31 -73t75 -30.5zM512 269q26 0 44.5 -18t18.5 -43.5t-18.5 -43t-44.5 -17.5t-44.5 17.5t-18.5 43t18.5 43.5t44.5 18z" />
    <glyph glyph-name="uniE60A" unicode="&#xe60a;" 
d="M885 86l-81 138v278q0 82 -57 158t-145 107q-4 43 -30.5 70.5t-64 27.5t-64.5 -28t-31 -70q-89 -31 -145.5 -107t-56.5 -158v-278l-84 -145q-9 -15 0 -31q9 -15 28 -15h200q11 -53 54 -87.5t99 -34.5t99 35t54 87h201h1q14 0 23 9t9 22q0 12 -9 22zM507.5 803
q16.5 0 26.5 -21q-3 1 -12.5 2.5t-14.5 1.5t-14 -1.5t-12 -2.5q10 21 26.5 21zM507.5 -27q-29.5 0 -53 16.5t-33.5 43.5h173q-10 -27 -33.5 -43.5t-53 -16.5zM208 94l62 106q4 8 4 15v287q0 53 29.5 103.5t84.5 84t119 33.5t119 -33.5t85 -84t30 -103.5v-286q0 -7 4 -15
l61 -106h-598v-1zM208 94z" />
    <glyph glyph-name="uniE60B" unicode="&#xe60b;" 
d="M719 -145h-416q-46 0 -78.5 32.5t-32.5 79.5v671q0 46 32.5 79t78.5 33h416q46 0 78.5 -33t32.5 -79v-671q0 -47 -32.5 -79.5t-78.5 -32.5zM775 638q0 23 -16.5 39.5t-39.5 16.5h-416q-23 0 -39 -16.5t-16 -39.5v-28h527v28zM775 554h-527v-447h527v447zM775 51h-527v-84
q0 -24 16 -40t39 -16h416q23 0 39.5 16t16.5 40v84zM511 -61q-17 0 -29.5 12t-12.5 29.5t12.5 30t29.5 12.5t29.5 -12.5t12.5 -30t-12.5 -29.5t-29.5 -12z" />
    <glyph glyph-name="uniE60C" unicode="&#xe60c;" 
d="M501 827q95 0 162.5 -65t67.5 -157t-67.5 -157t-162.5 -65t-162.5 65t-67.5 157t67.5 157t162.5 65zM501 875q-115 0 -196.5 -79.5t-81.5 -191t81.5 -190.5t196.5 -79t196.5 79t81.5 190.5t-81.5 191t-196.5 79.5zM615 262q126 0 215 -86t89 -207v-20q0 -12 -12 -21
t-38 -14.5t-50 -8.5t-66 -4.5t-67 -1.5h-71h-208h-73q-25 0 -67.5 1.5t-65.5 4.5t-48.5 8.5t-37 14.5t-11.5 21v20q0 121 89 207t214 86h208zM615 309h-208q-95 0 -176 -45.5t-128 -124t-47 -170.5v-20q0 -24 11 -41.5t38 -28t51.5 -16.5t74 -8.5t81 -3t95.5 -0.5h208
q63 0 93.5 0.5t80 3t74.5 8.5t53 16.5t39 28t11 41.5v20q0 92 -47 170.5t-127.5 124t-176.5 45.5z" />
    <glyph glyph-name="uniE60D" unicode="&#xe60d;" 
d="M744 -147h-4q-81 4 -184 75.5t-204 194.5l-51 61q-101 123 -151.5 236.5t-38.5 191.5q9 52 71 94t113 42q35 0 46 -25q28 -49 53.5 -116t25.5 -95v-3l-1 -2q-8 -21 -41 -40q-17 -9 -24.5 -17t-8.5 -23q-2 -28 95 -147l38 -46q97 -115 125 -119q15 -2 24.5 3.5t22.5 20.5
q25 28 48 31h2h3q28 -6 89.5 -44.5t106.5 -76.5q24 -16 11 -57q-14 -46 -65 -92.5t-101 -46.5z" />
    <glyph glyph-name="uniE60E" unicode="&#xe60e;" 
d="M403.5 143q-18.5 0 -30.5 12l-219 220q-9 10 -9 22.5t9 22t22 9.5t22 -9l206 -207l456 458q9 9 21.5 9t22 -9t9.5 -22t-9 -22l-470 -472q-12 -12 -30.5 -12z" />
    <glyph glyph-name="uniE60F" unicode="&#xe60f;" 
d="M792 637h-84v56h-75q-19 25 -51 40.5t-70 15.5t-70 -15.5t-51 -40.5h-75v-56h-84q-46 0 -79 -33t-33 -79v-560q0 -47 33 -79.5t79 -32.5h560q46 0 79 32.5t33 79.5v560q0 46 -33 79t-79 33zM372 637h62q0 23 23 39.5t55 16.5t55 -16.5t23 -39.5h62v-112h-280v112z
M848 -35q0 -24 -16.5 -40t-39.5 -16h-560q-23 0 -39.5 16t-16.5 40v560q0 23 16.5 39.5t39.5 16.5h84v-112h392v112h84q23 0 39.5 -16.5t16.5 -39.5v-560zM708 77h-392q-12 0 -20 -8.5t-8 -20t8 -19.5t20 -8h392q12 0 20 8t8 19.5t-8 20t-20 8.5zM708 357h-392
q-12 0 -20 -8.5t-8 -20t8 -19.5t20 -8h392q12 0 20 8t8 19.5t-8 20t-20 8.5zM708 217h-392q-12 0 -20 -8.5t-8 -20t8 -19.5t20 -8h392q12 0 20 8t8 19.5t-8 20t-20 8.5z" />
    <glyph glyph-name="uniE610" unicode="&#xe610;" 
d="M867 458h-2q-25 0 -25 -36v-348h-655v344q0 15 -8.5 25t-22.5 10h3q-14 0 -22 -10t-8 -25v-369q0 -14 10 -24t25 -10h701q14 0 24 10.5t10 24.5v4v1v367q0 15 -8 25.5t-22 10.5zM360 559l124 124v-397q0 -37 26 -37q15 0 23.5 10.5t8.5 26.5v395l132 -127q21 -21 41 0
q11 11 9 25.5t-14 25.5l-172 168q-12 12 -30 11q-13 -2 -22 -11l-172 -173q-11 -10 -11 -25.5t11 -26.5q18 -18 46 11z" />
    <glyph glyph-name="uniE611" unicode="&#xe611;" 
d="M513 845q94 0 179 -36.5t147 -98.5t98.5 -147t36.5 -179t-36.5 -179t-98.5 -147t-147 -98.5t-179 -36.5t-179 36.5t-147 98.5t-98.5 147t-36.5 179t36.5 179t98 147t147 98.5t179.5 36.5zM513 886q-102 0 -195 -40t-160 -107t-107 -160t-40 -195t40 -195t107 -160
t160 -107t195 -40t195 40t160 107t107 160t40 195t-40 195t-107 160t-160 107t-195 40zM744 181l-202 203l202 203q7 6 7 14t-6.5 14.5t-14.5 6.5t-14 -7l-203 -202l-203 202q-6 7 -14 7t-14.5 -6.5t-6.5 -14.5t7 -14l201 -203l-202 -203q-7 -6 -7 -14t6.5 -14.5t14.5 -6.5
t14 7l203 202l203 -202q6 -7 14 -7t14 7q7 6 7.5 14t-6.5 14z" />
    <glyph glyph-name="uniE612" unicode="&#xe612;" horiz-adv-x="1025" 
d="M512 -128q-139 0 -257 68.5t-186.5 186.5t-68.5 257t68.5 257t186.5 186.5t257 68.5t257 -68.5t186.5 -186.5t68.5 -257t-68.5 -257t-186.5 -186.5t-257 -68.5zM512 864q-98 0 -186.5 -38t-153 -102.5t-102.5 -153t-38 -186.5t38 -186.5t102.5 -153t153 -102.5t186.5 -38
t186.5 38t153 102.5t102.5 153t38 186.5t-38 186.5t-102.5 153t-153 102.5t-186.5 38zM488 219q-9 -10 -21.5 -11t-22.5 7l-160 128l-25 20l40 50l25 -20l136 -109l236 265l21 24l48 -42l-21 -24z" />
    <glyph glyph-name="uniE613" unicode="&#xe613;" 
d="M741 647h-463v55q0 5 3.5 8.5t8.5 3.5h439q5 0 8.5 -3.5t3.5 -8.5v-55zM741 86h-463v528h463v-528zM741 -100q0 -5 -3.5 -8.5t-8.5 -3.5h-439q-5 0 -8.5 3.5t-3.5 8.5v153h463v-153zM729 747h-439q-19 0 -32 -13.5t-13 -31.5v-802q0 -19 13 -32t32 -13h439q19 0 32 13
t13 32v802q0 18 -13 31.5t-32 13.5zM460 -13h99v-33h-99v33z" />
    <glyph glyph-name="uniE614" unicode="&#xe614;" 
d="M789 584h-551q-29 0 -49 -20t-20 -48v-368q0 -28 20 -48.5t49 -20.5h551q28 0 48 20.5t20 48.5v368q0 28 -20 48t-48 20zM834 169q0 -28 -20 -48.5t-48 -20.5h-506q-28 0 -48 20.5t-20 48.5v325q0 29 20 49t48 20h506q28 0 48 -20t20 -49v-325zM781 231l15 18l-151 129
l121 121l-17 17l-248 -248l-232 233l-17 -17l118 -117l-132 -133l16 -17l133 133l115 -115l16 16l111 111z" />
    <glyph glyph-name="uniE615" unicode="&#xe615;" 
d="M438 597h-12q-6 0 -9.5 -4t-3.5 -10v-416q-57 77 -140 113v-44q97 -49 145 -153l2 1q3 -1 6 -1h12q5 0 9 4t4 9v487q0 6 -4 10t-9 4zM642 557l-2 -1q-3 1 -6 1h-12q-6 0 -9.5 -4t-3.5 -9v-488q0 -5 3.5 -9t9.5 -4h12q6 0 9.5 4t3.5 9v417q57 -77 140 -113v44
q-97 49 -145 153z" />
    <glyph glyph-name="uniE616" unicode="&#xe616;" 
d="M798 896h-572q-94 0 -160 -66t-66 -160v-572q0 -94 66 -160t160 -66h572q94 0 160 66t66 160v572q0 94 -66 160t-160 66zM987 119q0 -87 -61.5 -148.5t-148.5 -61.5h-530q-87 0 -148.5 61.5t-61.5 148.5v530q0 87 61.5 148.5t148.5 61.5h530q87 0 148.5 -61.5
t61.5 -148.5v-530zM841 570l-53 49l-348 -370l-209 188l-48 -54l260 -234l1 1l1 -1z" />
    <glyph glyph-name="uniE617" unicode="&#xe617;" 
d="M512 779q-97 0 -186 -38t-153 -102t-102 -153t-38 -186t38 -186t102 -153t153 -102t186 -38t186 38t153 102t102 153t38 186t-38 186t-102 153t-153 102t-186 38zM462 56l-252 254l79 77l172 -174l312 310l78 -79z" />
    <glyph glyph-name="uniE618" unicode="&#xe618;" 
d="M761 97l-203 203l203 203l-46 46l-203 -203l-203 203l-46 -46l203 -203l-203 -203l46 -46l203 203l203 -203z" />
    <glyph glyph-name="uniE619" unicode="&#xe619;" 
d="M331 402q21 11 21 36v46h408q17 0 29 12t12 29t-12 29t-29 12h-408v47q0 25 -21 36q-22 12 -42 -2l-131 -87q-18 -12 -18 -34t18 -34l131 -88q20 -14 42 -2zM866 188l-129 84q-20 13 -41.5 1.5t-21.5 -34.5v-44h-404q-17 0 -28.5 -11.5t-11.5 -27.5v-1q0 -16 11.5 -28
t28.5 -12h404v-44q0 -24 21.5 -35t41.5 2l129 84q18 11 18 32.5t-18 33.5z" />
    <glyph glyph-name="uniE61A" unicode="&#xe61a;" 
d="M580 300q-9 0 -16 -7t-7 -17q0 -8 7 -15t16 -7q13 0 21.5 6.5t8.5 15.5q0 10 -8.5 17t-21.5 7zM503 413q14 0 22 8t8 21t-8 21t-22 8t-24 -8t-10 -21t10 -21t24 -8zM512 811q-104 0 -198.5 -40.5t-163 -109t-109 -163t-40.5 -198.5t40.5 -199t109 -163.5t163 -109
t198.5 -40.5t199 40.5t163.5 109t109 163.5t40.5 199t-40.5 198.5t-109 163t-163.5 109t-199 40.5zM416 170q-36 0 -83 13l-84 -42l24 72q-94 66 -94 158q0 84 69 142t168 58q87 0 154.5 -46.5t82.5 -118.5q-12 2 -22 2q-85 0 -143 -55t-58 -132q0 -23 6 -50q-6 -1 -20 -1z
M763 88l17 -60l-63 36q-5 -1 -22 -5t-28 -5.5t-22 -1.5q-84 0 -142 50t-58 121.5t58 121.5t142 50q80 0 140.5 -50.5t60.5 -121.5q0 -74 -83 -135zM338 471q-14 0 -25 -8t-11 -21t11 -21t25 -8q13 0 21.5 8t8.5 21t-8.5 21t-21.5 8zM711 300q-10 0 -17 -7t-7 -17
q0 -8 7.5 -15t16.5 -7q12 0 20.5 6.5t8.5 15.5q0 10 -8.5 17t-20.5 7zM711 300z" />
    <glyph glyph-name="uniE61B" unicode="&#xe61b;" 
d="M525 736q-15 8 -28 -3l-3 -2q-2 -2 -6.5 -5.5t-10.5 -8t-13.5 -11t-15.5 -12.5t-17.5 -13.5t-18.5 -14.5q-81 -62 -103 -70h-108h-1h-1h-49q-9 0 -15.5 -7t-6.5 -16v-372q0 -9 6.5 -16t15.5 -7h177q20 -7 93 -69q58 -50 76 -67q7 -7 18 -7q5 0 11 2q16 8 16 26v648
q0 18 -16 25v0zM496 108q-19 17 -39 34q-61 52 -87.5 67.5t-40.5 15.5h-1v0h-1h-136q-11 0 -15 4.5t-4 16.5v285q0 10 2.5 14t11.5 4h124q29 0 136 82q23 17 50 39v-562v0zM764 387q0 53 -25.5 98t-68.5 71q-7 4 -13 4q-9 0 -15.5 -7t-6.5 -16q0 -14 11 -21q33 -19 53 -53.5
t20 -75.5q0 -42 -20.5 -76.5t-54.5 -53.5q-11 -7 -11 -21q0 -9 6.5 -16t16.5 -7l11 3q44 26 70.5 71.5t26.5 99.5v0zM738 675q-8 5 -14 5q-9 0 -15.5 -7t-6.5 -17q0 -13 13 -20q62 -39 99.5 -105t37.5 -144t-37.5 -144t-99.5 -104q-14 -8 -14 -21q0 -10 7 -17t16 -7
q6 0 13 5q73 44 116 120.5t43 167.5t-43 167.5t-115 120.5v0z" />
    <glyph glyph-name="uniE61C" unicode="&#xe61c;" horiz-adv-x="1449" 
d="M868 196q17 38 51 61.5t76 23.5q58 0 98.5 -40.5t40.5 -98.5t-40.5 -99t-98 -41t-98 41t-40.5 99q0 6 2 17l-8 4l-226 100q-17 -34 -49.5 -54.5t-71.5 -20.5q-57 0 -97.5 41t-40.5 99t40.5 99t97.5 41q39 0 71 -20t50 -54l234 103q-2 12 -2 18q0 57 40.5 98t98 41t98 -41
t40.5 -98.5t-40.5 -98.5t-98.5 -41q-42 0 -76 23.5t-50 61.5l-231 -102q4 -18 4 -30t-4 -29zM996.5 44q39.5 0 68 28.5t28.5 68t-28.5 68t-68 28.5t-68 -28.5t-28.5 -68t28.5 -68t68 -28.5zM504 424q-40 0 -68 -28t-28 -68t28 -67.5t68 -27.5t68 27.5t28 67.5t-28 68t-68 28
zM996.5 610q-39.5 0 -68 -28t-28.5 -68t28.5 -68t68 -28t68 28t28.5 68t-28.5 68t-68 28z" />
    <glyph glyph-name="uniE61D" unicode="&#xe61d;" 
d="M334 436h327v-136h-327v136zM512 811q-104 0 -198.5 -40.5t-163 -109t-109 -163t-40.5 -198.5t40.5 -199t109 -163.5t163 -109t198.5 -40.5t199 40.5t163.5 109t109 163.5t40.5 199t-40.5 198.5t-109 163t-163.5 109t-199 40.5zM226 626h571v-54h-571v54zM742 490v-245
h-489v245h489zM797 28h-599v54h187q-6 19 -14 36.5t-13.5 26t-18.5 27t-18 25.5l64 23q38 -55 68 -138h121q6 14 29 63t34 78l69 -28q-7 -17 -27 -50t-31 -63h149v-54z" />
    <glyph glyph-name="uniE61E" unicode="&#xe61e;" 
d="M512 812q-139 0 -257 -68.5t-186.5 -186.5t-68.5 -257t68.5 -257t186.5 -186.5t257 -68.5t257 68.5t186.5 186.5t68.5 257t-68.5 257t-186.5 186.5t-257 68.5zM739 175q-16 -44 -46 -84q2 -1 5.5 -2.5t12.5 -7t15.5 -12.5t11.5 -18.5t4 -24.5q0 -2 -1 -5.5t-6.5 -12.5
t-16.5 -15.5t-34.5 -11.5t-55.5 -4q-9 1 -23 3t-42.5 12.5t-39.5 25.5h-22q-11 -15 -37 -25.5t-47 -12.5l-21 -3q-32 -1 -55.5 4t-34.5 11.5t-17 15.5t-6.5 12.5t-0.5 5.5q-4 42 44 63l5 2q-13 18 -24.5 39t-16.5 33l-5 12q-15 -24 -26.5 -36t-18 -12t-11 5.5t-6.5 15.5
t-2.5 19.5t-0.5 16.5v7q6 35 24 67.5t31.5 47.5t15.5 15q-4 32 1.5 53t12.5 26l7 5q1 45 13 81.5t28.5 58.5t39 38t41 23t38.5 11t27.5 4.5t12.5 0.5t12.5 -0.5t27.5 -4.5t38.5 -11t41 -23t39 -38t28.5 -58.5t13 -81.5q1 0 3 -1.5t7 -7.5t7.5 -14.5t5 -24t-1.5 -36.5
q7 -6 16.5 -16.5t29 -44.5t25.5 -69v0v-5v-10q0 -8 -1 -15t-3 -15t-4.5 -12.5t-7.5 -6t-11.5 2.5t-16.5 15t-21 30zM739 175z" />
    <glyph glyph-name="uniE61F" unicode="&#xe61f;" 
d="M512 812q-104 0 -199 -40.5t-163.5 -109t-109 -163.5t-40.5 -199t40.5 -199t109 -163.5t163.5 -109t199 -40.5t199 40.5t163.5 109t109 163.5t40.5 199t-40.5 199t-109 163.5t-163.5 109t-199 40.5zM649 636q43 -19 81 -49q15 -13 29 -27q32 -32 56 -73q6 -11 10 -20
l-176 -179q2 10 0 348zM473 661q20 3 39 3q46 0 91 -13q12 -3 21 -6v-253q-2 3 -63 65t-120 121l-59 60q44 18 91 23zM237 528q13 17 26 30q33 33 73 57q9 5 20 10l176 -179q-10 2 -343 0q19 45 48 82zM164 267q-2 21 -2 40q0 47 12 92q3 12 6 22h250q-4 -3 -65 -64.5
t-119 -121.5l-59 -60q-18 44 -23 92zM294 28q-16 13 -30 27q-32 33 -55 73q-6 11 -11 21l176 179v-40v-88v-101q0 -49 0.5 -85.5t0.5 -34.5q-44 19 -81 49zM551 -48q-20 -2 -40 -2q-46 0 -90 12q-11 3 -22 7v253q2 -2 16 -16.5t35.5 -36.5t47 -48t50.5 -51l47 -47l34 -34
l13 -13q-44 -18 -91 -24zM785 84q-13 -16 -26 -30q-33 -33 -73 -57l-20 -10l-176 179h343q-19 -44 -48 -82zM850 214l-6 -22h-250q4 3 64.5 64.5t119.5 121.5l59 61q17 -45 23 -93q2 -20 2 -40q0 -46 -12 -92z" />
    <glyph glyph-name="uniE620" unicode="&#xe620;" 
d="M386 195h339v365h-339v-365zM512 896q-139 0 -257 -68.5t-186.5 -186.5t-68.5 -257t68.5 -257t186.5 -186.5t257 -68.5t257 68.5t186.5 186.5t68.5 257t-68.5 257t-186.5 186.5t-257 68.5zM343 195h-33v1q-19 4 -31.5 19.5t-12.5 34.5v365q0 23 16 39.5t39 16.5h295
q19 0 34 -12.5t19 -31.5h-31v11h-339v-365h11h12h21v-78zM670 627v-22h-32v22h32zM758 173q0 -23 -16 -39t-39 -16h-295q-22 0 -38 16t-16 39v365q0 23 16 39t38 16h295q23 0 39 -16t16 -39v-365z" />
    <glyph glyph-name="uniE621" unicode="&#xe621;" 
d="M119 176l100 -101q12 -11 0.5 -22.5t-22.5 0.5l-128 128q-12 11 0 22l128 128q11 12 22.5 0.5t-0.5 -22.5l-100 -101h825q7 0 11.5 -4.5t4.5 -11.5t-4.5 -11.5t-11.5 -4.5h-825zM905 592l-100 101q-12 11 -0.5 22.5t22.5 -0.5l128 -128q12 -11 0 -22l-128 -128
q-11 -12 -22.5 -0.5t0.5 22.5l100 101h-825q-7 0 -11.5 4.5t-4.5 11.5t4.5 11.5t11.5 4.5h825z" />
    <glyph glyph-name="uniE622" unicode="&#xe622;" 
d="M512 890q103 0 196.5 -40t161.5 -108t108 -161.5t40 -196.5t-40 -197t-108 -161.5t-161.5 -107.5t-196.5 -40t-197 40t-161.5 107.5t-108 161.5t-40.5 197t40.5 196.5t108 161.5t161.5 108t197 40zM531.5 632q-98.5 0 -168 -69t-69.5 -168q0 -33 7 -68t9.5 -53t-10 -52.5
t-45.5 -83.5q37 0 66.5 14t52.5 16q20 2 85 -4t72 -6q99 0 168.5 69.5t69.5 168t-69.5 167.5t-168 69z" />
    <glyph glyph-name="uniE623" unicode="&#xe623;" 
d="M660 212l-90 90l90 90q11 11 11 26t-10.5 26t-25.5 11t-26 -11l-90 -90l-90 90q-11 10 -26 10t-25.5 -10.5t-10.5 -25.5t10 -26l90 -90l-90 -90q-10 -10 -10 -25.5t10.5 -26t25.5 -10.5t26 11l90 90l90 -90q10 -11 25 -11t26 10.5t11 26t-11 25.5v0zM840 624
q-87 87 -204 118t-234.5 0t-204.5 -118t-118 -204t0 -234.5t118 -204.5t204.5 -118t234.5 0t204 118t118 204.5t0 234.5t-118 204v0zM237 21q-76 77 -103 179.5t0 205t103.5 178.5t179 103.5t205 0t178.5 -103.5t103 -178.5t0 -205t-103 -179t-178.5 -103.5t-205 0
t-179.5 103v0zM237 21z" />
    <glyph glyph-name="uniE624" unicode="&#xe624;" 
d="M664 341h-159q-16 0 -26 13l-129 179q-8 11 -5.5 24t13 21t23.5 5.5t21 -12.5l119 -166h143q13 0 22.5 -9.5t9.5 -22.5t-9.5 -22.5t-22.5 -9.5zM574 777l-108 108v-90q-102 -12 -186 -69t-133 -147.5t-49 -194.5q0 -128 74 -235t194 -152q6 -2 12 -2q22 0 29 21
q5 12 -0.5 24t-17.5 17q-94 35 -154.5 115.5t-69.5 179.5h87q13 0 22.5 9.5t9.5 22.5t-9.5 22.5t-22.5 9.5h-88q11 122 96 210t206 104v-59zM926 384v1q0 129 -73.5 235.5t-193.5 151.5q-13 5 -25 -0.5t-16.5 -18t1 -24.5t17.5 -16q94 -36 154.5 -116.5t69.5 -180.5h-87
q-13 0 -22.5 -9.5t-9.5 -22.5t9.5 -22.5t22.5 -9.5h88q-12 -121 -97 -209t-205 -104v60l-108 -106l108 -109v91q102 11 186 68t132.5 147t48.5 194v0z" />
    <glyph glyph-name="uniE625" unicode="&#xe625;" 
d="M334 436h326v-136h-326v136zM512 812q-104 0 -199 -40.5t-163.5 -109t-109 -163.5t-40.5 -199q0 -139 68.5 -257t186.5 -186.5t257 -68.5t257 68.5t186.5 186.5t68.5 257q0 104 -40.5 199t-109 163.5t-163.5 109t-199 40.5zM225 627h572v-55h-572v55zM742 491v-245h-490
v245h490zM797 28h-599v54h186q-5 19 -13.5 36.5t-13.5 26t-18 27t-18 26.5l63 23q38 -56 69 -139h121q6 14 29 63t34 78l69 -28q-7 -17 -27 -50t-31 -63h149v-54z" />
    <glyph glyph-name="uniE627" unicode="&#xe627;" 
d="M438 312q-5 -4 -6.5 -10.5t2.5 -10.5q6 -12 19 -2t6 22t-21 1zM385 298q-16 -2 -26.5 -13.5t-10.5 -25.5q0 -13 11.5 -21t27 -6t27 12.5t11.5 23.5q0 14 -11.5 22.5t-28.5 7.5zM512 896q-139 0 -257 -68.5t-186.5 -186.5t-68.5 -257t68.5 -257t186.5 -186.5t257 -68.5
t257 68.5t186.5 186.5t68.5 257t-68.5 257t-186.5 186.5t-257 68.5zM742 264q-22 -47 -76 -81t-116 -47.5t-121 -9.5q-36 3 -67.5 9t-66.5 19t-60.5 31.5t-44 48.5t-22.5 67q-1 7 -0.5 19t12.5 47.5t38 69.5q3 5 9.5 13t25.5 29.5t39 39.5t49 37.5t55 28.5q28 9 48.5 9.5
t31.5 -5t17.5 -17t8.5 -21t2 -21.5q-7 -22 -5 -31.5t26 -1.5q4 2 10.5 4.5t25 8t34.5 7.5t34.5 -1t29.5 -14q14 -14 15 -32.5t-4 -30.5l-6 -12q-1 0 -1.5 -1t-1.5 -4t0 -5.5t5 -5t12 -3.5q9 -2 21 -7.5t26 -17.5t22.5 -27t8.5 -39.5t-14 -52.5zM649 537q-8 0 -13 5.5t-5 13
t5 13t13 5.5q3 1 7 1.5t15.5 0t22 -2.5t23 -9t20.5 -18t12.5 -30t1.5 -45v-2q-1 -6 -6 -10.5t-12 -4.5q-8 0 -13.5 5t-5.5 13q0 2 0.5 4.5t1 11.5t-1 15.5t-5 15.5t-11 13t-19.5 7t-30 -2zM845 448q-4 -28 -26 -28q-27 0 -27 19q0 6 1.5 12.5t2.5 9.5l1 4q13 43 -8 90
q-19 31 -50.5 48t-53.5 19t-30 -1l-24 -6q-12 0 -19.5 8t-7.5 20q0 21 19 26l1 1l1 2l1 1q60 11 93 3q29 -6 56.5 -24.5t50 -48t28.5 -68.5t-9 -87zM438 431q-86 -4 -145 -44.5t-59 -96.5q0 -57 59.5 -94t144.5 -33q83 4 143.5 49t60.5 102q0 56 -59 88.5t-145 28.5z
M514 241q-27 -35 -72 -45t-97 15q-14 7 -21.5 20t-8.5 22v9q0 2 -0.5 5.5t0.5 15t3.5 22t9.5 24t17.5 23.5t28.5 18t41 11q40 5 68 -10t38 -38.5t8.5 -49t-15.5 -42.5z" />
    <glyph glyph-name="uniE65F" unicode="&#xe65f;" 
d="M879 674h-375q-24 0 -42 8.5t-30.5 21t-24.5 25t-30 21.5t-40 9h-209q-35 0 -60 -25t-25 -60v-167v-418q0 -35 25 -60t60 -25h751q35 0 60 25t25 60v504q-3 35 -26.5 58t-58.5 23zM922 94q0 -17 -12.5 -30t-30.5 -13h-751q-17 0 -30 12.5t-13 30.5v414h831v-414h6z
M922 550h-837v124q0 17 12 30t31 13h209q17 0 31.5 -9t26 -21.5t24.5 -25t34.5 -21t50.5 -8.5h376q16 0 29.5 -12.5t13.5 -30.5v-39h-1z" />
    <glyph glyph-name="uniE68E" unicode="&#xe68e;" 
d="M510.5 -57q-89.5 0 -171.5 35t-141.5 94.5t-94.5 141t-35 171.5t35 172t94.5 141t141.5 94t171.5 35t171.5 -35t141 -94t94 -141t35 -172t-35 -171.5t-94 -141t-141 -94.5t-171.5 -35zM510.5 766q-103.5 0 -191.5 -51t-139 -138.5t-51 -191t51 -191.5t139 -139t191.5 -51
t191 51t139 139t51.5 191.5t-51.5 191t-139 138.5t-191 51zM300 175l94 326l327 95l-95 -327zM444 452l-55 -188l188 54l55 189z" />
    <glyph glyph-name="uniE6BC" unicode="&#xe6bc;" 
d="M788 -154q-4 0 -7 1l-268 109l-268 -109q-10 -4 -18.5 2.5t-7.5 16.5l20 288l-186 222q-7 8 -3.5 18t13.5 13l281 69l152 245q6 9 17 9t16 -9l153 -245l280 -69q11 -3 14 -13t-4 -18l-185 -222l20 -288q1 -10 -8 -17q-5 -3 -11 -3z" />
    <glyph glyph-name="uniE754" unicode="&#xe754;" 
d="M975 394q-3 10 -14 13l-280 69l-153 245q-5 9 -16 9t-16 -9l-153 -245l-280 -69q-11 -3 -14 -13t3 -18l186 -222l-20 -288q-1 -10 7.5 -16.5t18.5 -2.5l268 109l268 -109q3 -1 7 -1q6 0 11 3q9 7 8 17l-20 288l186 222q6 8 3 18zM751 173q-5 -6 -4 -14l19 -265l-247 100
q-3 1 -7 1t-7 -1l-247 -100l19 265q1 8 -4 14l-171 204l258 64q7 2 11 8l141 226l141 -226q4 -6 11 -8l258 -64z" />
  </font>
</defs>
</svg>
